<svg xmlns="http://www.w3.org/2000/svg" xmlns:xlink="http://www.w3.org/1999/xlink" width="1000" zoomAndPan="magnify" viewBox="0 0 750 809.999993" height="1080" preserveAspectRatio="xMidYMid meet" version="1.0"><defs><clipPath id="7cb12d3907"><path d="M 173.605469 106 L 576.355469 106 L 576.355469 705 L 173.605469 705 Z M 173.605469 106 " clip-rule="nonzero"/></clipPath></defs><g clip-path="url(#7cb12d3907)"><path fill="#ffffff" d="M 375.035156 106.152344 C 264.011719 106.152344 173.222656 196.105469 173.222656 307.128906 C 190.648438 439.121094 281.761719 520.683594 359.929688 622.644531 C 367.195312 631.875 383.292969 631.875 390.558594 622.644531 C 398.628906 611.808594 409.03125 599.109375 420.347656 585.300781 C 447.601562 588 472.265625 592.214844 490.835938 598.726562 C 505.066406 603.722656 516.222656 609.207031 522.304688 614.25 C 528.398438 619.308594 528.175781 622.171875 528.175781 623.0625 C 528.175781 623.949219 528.269531 627.246094 522.304688 632.292969 C 516.222656 637.351562 505.066406 642.824219 490.835938 647.816406 C 462.371094 657.804688 421.074219 665.019531 375.035156 665.019531 C 328.96875 665.019531 286.871094 657.804688 258.394531 647.816406 C 244.164062 642.824219 233.023438 637.359375 226.925781 632.292969 C 220.832031 627.246094 220.214844 623.972656 220.214844 623.0625 C 220.214844 622.164062 220.859375 619.3125 226.925781 614.25 C 233.023438 609.203125 244.164062 603.722656 258.394531 598.726562 C 266.128906 596.023438 274.957031 592.453125 284.40625 590.335938 L 258.394531 558.03125 C 254.191406 559.292969 249.753906 560.410156 245.808594 561.804688 C 228.664062 567.828125 213.636719 574.953125 202.171875 584.464844 C 190.707031 593.976562 181.195312 607.160156 181.195312 623.0625 C 181.195312 638.980469 190.707031 651.730469 202.171875 661.242188 C 213.636719 670.753906 228.664062 678.707031 245.808594 684.738281 C 280.136719 696.785156 325.277344 704.039062 375.035156 704.039062 C 437.789062 702.195312 497.726562 694.3125 546.636719 661.242188 C 574.363281 633.742188 567.019531 610.40625 546.636719 584.464844 C 535.171875 574.953125 521.421875 567.828125 504.261719 561.804688 C 488.511719 556.277344 470.265625 551.515625 450.558594 548.378906 C 467.703125 527.234375 485.339844 504.9375 502.164062 481.25 C 541.703125 425.617188 576.007812 365.652344 576.007812 307.128906 C 576.007812 196.105469 486.027344 106.152344 375.035156 106.152344 Z M 294.476562 197.621094 L 454.75 197.621094 C 454.75 197.621094 461.242188 197.4375 463.144531 203.492188 L 476.570312 246.710938 L 476.570312 232.863281 L 498.804688 232.863281 L 498.804688 249.226562 L 477.410156 249.226562 C 478.234375 250.921875 480.59375 254.261719 485.378906 254.261719 L 486.636719 254.261719 C 486.636719 254.261719 492.933594 254.261719 492.933594 260.554688 L 492.933594 289.925781 C 492.933594 289.925781 493.40625 296.21875 489.574219 296.21875 C 489.574219 296.21875 485.800781 296.21875 485.800781 302.511719 L 485.800781 304.191406 C 485.800781 304.191406 485.632812 305.210938 484.960938 306.707031 L 486.636719 306.707031 C 492.929688 306.707031 492.933594 313.421875 492.933594 313.421875 L 492.933594 387.683594 C 492.933594 394.046875 486.636719 393.980469 486.636719 393.980469 L 462.304688 393.980469 C 455.914062 393.980469 456.007812 387.683594 456.007812 387.683594 L 456.007812 362.511719 L 414.472656 362.511719 C 414.59375 363.195312 414.890625 363.773438 414.890625 363.773438 C 414.890625 370.132812 408.597656 370.066406 408.597656 370.066406 L 342.304688 370.066406 C 335.917969 370.066406 336.011719 363.773438 336.011719 363.773438 L 336.011719 362.511719 L 293.636719 362.511719 L 293.636719 387.683594 C 293.640625 394.046875 287.34375 393.980469 287.34375 393.980469 L 263.425781 393.980469 C 257.074219 393.980469 256.714844 387.683594 256.714844 387.683594 L 256.714844 313.421875 C 256.714844 307.074219 263.425781 306.707031 263.425781 306.707031 L 265.105469 306.707031 C 264.714844 305.929688 265.105469 305.363281 265.105469 304.191406 L 265.105469 303.359375 C 265.105469 303.359375 264.847656 297.0625 259.230469 297.0625 C 259.230469 297.0625 253.777344 297.0625 253.777344 290.769531 L 253.777344 266.015625 C 253.777344 266.015625 253.722656 259.722656 260.070312 259.722656 L 261.75 259.722656 C 261.75 259.722656 267.742188 259.46875 269.722656 253.429688 L 271.398438 249.234375 L 250.421875 249.234375 L 250.421875 232.871094 L 272.65625 232.871094 L 272.65625 245.875 L 286.503906 203.5 C 286.503906 203.5 288.480469 197.902344 294.476562 197.625 Z M 303.707031 216.082031 L 295.316406 248.808594 L 450.558594 248.808594 L 441.746094 216.082031 Z M 308.742188 265.589844 C 302.171875 265.589844 296.996094 270.761719 296.996094 277.339844 C 296.996094 283.914062 302.171875 289.085938 308.742188 289.085938 C 315.320312 289.085938 320.910156 283.910156 320.910156 277.339844 C 320.910156 270.761719 315.320312 265.589844 308.742188 265.589844 Z M 439.648438 265.589844 C 433.074219 265.589844 427.898438 270.761719 427.898438 277.339844 C 427.898438 283.914062 433.078125 289.085938 439.648438 289.085938 C 446.226562 289.085938 451.394531 283.910156 451.394531 277.339844 C 451.394531 270.761719 446.222656 265.589844 439.648438 265.589844 Z M 268.464844 271.042969 L 268.464844 283.632812 L 285.667969 283.632812 L 285.667969 271.042969 Z M 463.5625 271.042969 L 463.5625 283.632812 L 480.765625 283.632812 L 480.765625 271.042969 Z M 463.5625 271.042969 " fill-opacity="1" fill-rule="evenodd"/></g></svg>