<svg xmlns="http://www.w3.org/2000/svg" xmlns:xlink="http://www.w3.org/1999/xlink" width="1000" zoomAndPan="magnify" viewBox="0 0 750 809.999993" height="1080" preserveAspectRatio="xMidYMid meet" version="1.0"><defs><clipPath id="048e964184"><path d="M 151.292969 67 L 599 67 L 599 732 L 151.292969 732 Z M 151.292969 67 " clip-rule="nonzero"/></clipPath></defs><g clip-path="url(#048e964184)"><path fill="#ffffff" d="M 375.039062 67.273438 C 251.71875 67.273438 150.867188 167.191406 150.867188 290.511719 C 170.226562 437.128906 271.433594 527.730469 358.261719 640.984375 C 366.328125 651.242188 384.214844 651.242188 392.28125 640.984375 C 401.246094 628.949219 412.800781 614.84375 425.371094 599.507812 C 455.648438 602.503906 483.042969 607.183594 503.667969 614.421875 C 519.476562 619.96875 531.867188 626.0625 538.625 631.664062 C 545.394531 637.28125 545.148438 640.460938 545.148438 641.453125 C 545.148438 642.4375 545.253906 646.097656 538.625 651.707031 C 531.867188 657.324219 519.476562 663.398438 503.667969 668.949219 C 472.050781 680.042969 426.179688 688.058594 375.039062 688.058594 C 323.871094 688.058594 277.109375 680.042969 245.476562 668.949219 C 229.667969 663.398438 217.292969 657.332031 210.523438 651.707031 C 203.75 646.097656 203.066406 642.460938 203.066406 641.453125 C 203.066406 640.453125 203.78125 637.285156 210.523438 631.664062 C 217.292969 626.058594 229.667969 619.96875 245.476562 614.421875 C 254.066406 611.414062 263.871094 607.449219 274.371094 605.101562 L 245.476562 569.214844 C 240.808594 570.613281 235.878906 571.859375 231.496094 573.410156 C 212.449219 580.097656 195.761719 588.011719 183.023438 598.574219 C 170.289062 609.144531 159.722656 623.785156 159.722656 641.453125 C 159.722656 659.132812 170.289062 673.292969 183.023438 683.863281 C 195.761719 694.429688 212.449219 703.261719 231.496094 709.960938 C 269.628906 723.339844 319.769531 731.398438 375.039062 731.398438 C 444.746094 729.351562 511.324219 720.59375 565.652344 683.863281 C 596.449219 653.316406 588.292969 627.394531 565.652344 598.574219 C 552.917969 588.011719 537.644531 580.097656 518.582031 573.410156 C 501.089844 567.269531 480.820312 561.976562 458.929688 558.496094 C 477.972656 535.007812 497.566406 510.238281 516.253906 483.925781 C 560.171875 422.132812 598.277344 355.523438 598.277344 290.511719 C 598.277344 167.191406 498.332031 67.273438 375.039062 67.273438 Z M 285.558594 168.875 L 463.589844 168.875 C 463.589844 168.875 470.796875 168.671875 472.910156 175.398438 L 487.824219 223.402344 L 487.824219 208.023438 L 512.523438 208.023438 L 512.523438 226.199219 L 488.753906 226.199219 C 489.671875 228.082031 492.292969 231.789062 497.609375 231.789062 L 499.007812 231.789062 C 499.007812 231.789062 505.996094 231.789062 505.996094 238.78125 L 505.996094 271.40625 C 505.996094 271.40625 506.523438 278.394531 502.269531 278.394531 C 502.269531 278.394531 498.074219 278.394531 498.074219 285.386719 L 498.074219 287.25 C 498.074219 287.25 497.890625 288.382812 497.144531 290.046875 L 499.007812 290.046875 C 505.996094 290.046875 505.996094 297.503906 505.996094 297.503906 L 505.996094 379.996094 C 505.996094 387.0625 499.007812 386.988281 499.007812 386.988281 L 471.976562 386.988281 C 464.882812 386.988281 464.984375 379.996094 464.984375 379.996094 L 464.984375 352.03125 L 418.847656 352.03125 C 418.980469 352.792969 419.3125 353.433594 419.3125 353.433594 C 419.3125 360.5 412.320312 360.425781 412.320312 360.425781 L 338.683594 360.425781 C 331.589844 360.425781 331.695312 353.433594 331.695312 353.433594 L 331.695312 352.03125 L 284.621094 352.03125 L 284.621094 379.996094 C 284.625 387.0625 277.632812 386.988281 277.632812 386.988281 L 251.066406 386.988281 C 244.007812 386.988281 243.609375 379.996094 243.609375 379.996094 L 243.609375 297.503906 C 243.609375 290.453125 251.066406 290.046875 251.066406 290.046875 L 252.929688 290.046875 C 252.496094 289.183594 252.929688 288.550781 252.929688 287.25 L 252.929688 286.328125 C 252.929688 286.328125 252.644531 279.335938 246.40625 279.335938 C 246.40625 279.335938 240.347656 279.335938 240.347656 272.34375 L 240.347656 244.847656 C 240.347656 244.847656 240.289062 237.855469 247.339844 237.855469 L 249.203125 237.855469 C 249.203125 237.855469 255.859375 237.574219 258.058594 230.867188 L 259.921875 226.203125 L 236.617188 226.203125 L 236.617188 208.027344 L 261.320312 208.027344 L 261.320312 222.476562 L 276.699219 175.40625 C 276.699219 175.40625 278.898438 169.183594 285.554688 168.878906 Z M 295.808594 189.378906 L 286.488281 225.734375 L 458.929688 225.734375 L 449.140625 189.378906 Z M 301.402344 244.375 C 294.105469 244.375 288.351562 250.121094 288.351562 257.425781 C 288.351562 264.726562 294.105469 270.472656 301.402344 270.472656 C 308.707031 270.472656 314.917969 264.722656 314.917969 257.425781 C 314.917969 250.121094 308.707031 244.375 301.402344 244.375 Z M 446.8125 244.375 C 439.511719 244.375 433.761719 250.121094 433.761719 257.425781 C 433.761719 264.726562 439.511719 270.472656 446.8125 270.472656 C 454.117188 270.472656 459.859375 264.722656 459.859375 257.425781 C 459.859375 250.121094 454.113281 244.375 446.8125 244.375 Z M 256.660156 250.433594 L 256.660156 264.414062 L 275.769531 264.414062 L 275.769531 250.433594 Z M 473.375 250.433594 L 473.375 264.414062 L 492.484375 264.414062 L 492.484375 250.433594 Z M 473.375 250.433594 " fill-opacity="1" fill-rule="evenodd"/></g></svg>